<?xml version="1.0" encoding="iso-8859-1"?>
<!-- Generator: Adobe Illustrator 21.1.0, SVG Export Plug-In . SVG Version: 6.00 Build 0)  -->
<svg xmlns="http://www.w3.org/2000/svg" xmlns:xlink="http://www.w3.org/1999/xlink" version="1.1" id="Layer_1" x="0px" y="0px" viewBox="0 0 64 64" style="enable-background:new 0 0 64 64;" xml:space="preserve" width="96px" height="96px">
<linearGradient id="SVGID_1__60486" gradientUnits="userSpaceOnUse" x1="37.7633" y1="12" x2="37.7633" y2="61" spreadMethod="reflect">
	<stop offset="0" style="stop-color:#6DC7FF"/>
	<stop offset="1" style="stop-color:#E6ABFF"/>
</linearGradient>
<path style="fill:url(#SVGID_1__60486);" d="M61,19v25c0,3.09-1.99,5.75-4.85,6.66l1.83,9.14c0.09,0.43-0.11,0.86-0.49,1.07  C57.34,60.96,57.17,61,57,61c-0.24,0-0.48-0.09-0.67-0.26L45.61,51H21c-2.37,0-4.53-1.18-5.81-3.09c-0.26-0.38-0.48-0.79-0.66-1.22  C14.4,46.36,18,44,18,44c0.1-0.04,30,0,30,0c2.76,0,6-3.24,6-6c0,0-0.24-26,0-26c0.32,0,0.63,0.02,0.93,0.07  C58.35,12.52,61,15.46,61,19z"/>
<linearGradient id="SVGID_2__60486" gradientUnits="userSpaceOnUse" x1="29" y1="6" x2="29" y2="55" spreadMethod="reflect">
	<stop offset="0" style="stop-color:#1A6DFF"/>
	<stop offset="1" style="stop-color:#C822FF"/>
</linearGradient>
<path style="fill:url(#SVGID_2__60486);" d="M7,55c-0.169,0-0.339-0.043-0.493-0.13c-0.375-0.213-0.572-0.643-0.487-1.066l1.828-9.14  C4.985,43.75,3,41.092,3,38V13c0-3.86,3.141-7,7-7h38c3.859,0,7,3.14,7,7v25c0,3.859-3.141,7-7,7H18.387L7.673,54.74  C7.484,54.911,7.243,55,7,55z M10,8c-2.757,0-5,2.243-5,5v25c0,2.459,1.758,4.533,4.179,4.934c0.267,0.044,0.504,0.193,0.658,0.416  c0.154,0.222,0.212,0.496,0.16,0.762l-1.421,7.104l8.751-7.955C17.512,43.093,17.751,43,18,43h30c2.757,0,5-2.243,5-5V13  c0-2.757-2.243-5-5-5H10z"/>
<linearGradient id="SVGID_3__60486" gradientUnits="userSpaceOnUse" x1="29" y1="6.25" x2="29" y2="55.1276" spreadMethod="reflect">
	<stop offset="0" style="stop-color:#1A6DFF"/>
	<stop offset="1" style="stop-color:#C822FF"/>
</linearGradient>
<path style="fill:url(#SVGID_3__60486);" d="M30.5,21c1.381,0,2.5-1.119,2.5-2.5S31.881,16,30.5,16H26l-1,5H30.5z"/>
<linearGradient id="SVGID_4__60486" gradientUnits="userSpaceOnUse" x1="19" y1="6.25" x2="19" y2="55.1276" spreadMethod="reflect">
	<stop offset="0" style="stop-color:#1A6DFF"/>
	<stop offset="1" style="stop-color:#C822FF"/>
</linearGradient>
<path style="fill:url(#SVGID_4__60486);" d="M20.5,21c1.381,0,2.5-1.119,2.5-2.5S21.881,16,20.5,16H16l-1,5H20.5z"/>
<linearGradient id="SVGID_5__60486" gradientUnits="userSpaceOnUse" x1="18" y1="6.25" x2="18" y2="55.1276" spreadMethod="reflect">
	<stop offset="0" style="stop-color:#1A6DFF"/>
	<stop offset="1" style="stop-color:#C822FF"/>
</linearGradient>
<path style="fill:url(#SVGID_5__60486);" d="M19.5,28c1.381,0,2.5-1.119,2.5-2.5S20.881,23,19.5,23H15l-1,5H19.5z"/>
<linearGradient id="SVGID_6__60486" gradientUnits="userSpaceOnUse" x1="28" y1="6.25" x2="28" y2="55.1276" spreadMethod="reflect">
	<stop offset="0" style="stop-color:#1A6DFF"/>
	<stop offset="1" style="stop-color:#C822FF"/>
</linearGradient>
<path style="fill:url(#SVGID_6__60486);" d="M29.5,28c1.381,0,2.5-1.119,2.5-2.5S30.881,23,29.5,23H25l-1,5H29.5z"/>
<linearGradient id="SVGID_7__60486" gradientUnits="userSpaceOnUse" x1="39" y1="5.25" x2="39" y2="54.1276" spreadMethod="reflect">
	<stop offset="0" style="stop-color:#1A6DFF"/>
	<stop offset="1" style="stop-color:#C822FF"/>
</linearGradient>
<path style="fill:url(#SVGID_7__60486);" d="M40.5,25c1.381,0,2.5-1.119,2.5-2.5S41.881,20,40.5,20H36l-1,5H40.5z"/>
<linearGradient id="SVGID_8__60486" gradientUnits="userSpaceOnUse" x1="38" y1="5.25" x2="38" y2="54.1276" spreadMethod="reflect">
	<stop offset="0" style="stop-color:#1A6DFF"/>
	<stop offset="1" style="stop-color:#C822FF"/>
</linearGradient>
<path style="fill:url(#SVGID_8__60486);" d="M39.5,32c1.381,0,2.5-1.119,2.5-2.5S40.881,27,39.5,27H35l-1,5H39.5z"/>
<linearGradient id="SVGID_9__60486" gradientUnits="userSpaceOnUse" x1="27" y1="6.25" x2="27" y2="55.1276" spreadMethod="reflect">
	<stop offset="0" style="stop-color:#1A6DFF"/>
	<stop offset="1" style="stop-color:#C822FF"/>
</linearGradient>
<path style="fill:url(#SVGID_9__60486);" d="M28.5,35c1.381,0,2.5-1.119,2.5-2.5c0-1.381-1.119-2.5-2.5-2.5H24l-1,5H28.5z"/>
</svg>
